<svg width="400" height="100" viewBox="0 0 400 100" fill="none" xmlns="http://www.w3.org/2000/svg">
<rect width="400" height="100" rx="50" fill="#FFD500"/>
<g filter="url(#filter0_d_3_19)">
<path d="M41.2727 62H33.0227V38.7273H41.3409C43.6818 38.7273 45.6969 39.1932 47.3863 40.125C49.0757 41.0492 50.375 42.3788 51.2841 44.1136C52.2007 45.8485 52.6591 47.9242 52.6591 50.3409C52.6591 52.7651 52.2007 54.8485 51.2841 56.5909C50.375 58.3333 49.0682 59.6705 47.3636 60.6023C45.6666 61.5341 43.6363 62 41.2727 62ZM37.9432 57.7841H41.0682C42.5227 57.7841 43.7462 57.5265 44.7386 57.0114C45.7386 56.4886 46.4886 55.6818 46.9886 54.5909C47.4962 53.4924 47.75 52.0758 47.75 50.3409C47.75 48.6212 47.4962 47.2159 46.9886 46.125C46.4886 45.0341 45.7424 44.2311 44.75 43.7159C43.7576 43.2008 42.5341 42.9432 41.0795 42.9432H37.9432V57.7841Z" fill="white"/>
<path d="M77.6903 50.3636C77.6903 52.9015 77.2093 55.0606 76.2471 56.8409C75.2926 58.6212 73.9896 59.9811 72.338 60.9205C70.6941 61.8523 68.8456 62.3182 66.7926 62.3182C64.7244 62.3182 62.8683 61.8485 61.2244 60.9091C59.5805 59.9697 58.2812 58.6098 57.3267 56.8295C56.3721 55.0492 55.8949 52.8939 55.8949 50.3636C55.8949 47.8258 56.3721 45.6667 57.3267 43.8864C58.2812 42.1061 59.5805 40.75 61.2244 39.8182C62.8683 38.8788 64.7244 38.4091 66.7926 38.4091C68.8456 38.4091 70.6941 38.8788 72.338 39.8182C73.9896 40.75 75.2926 42.1061 76.2471 43.8864C77.2093 45.6667 77.6903 47.8258 77.6903 50.3636ZM72.7017 50.3636C72.7017 48.7197 72.4555 47.3333 71.963 46.2045C71.4782 45.0758 70.7926 44.2197 69.9062 43.6364C69.0199 43.053 67.982 42.7614 66.7926 42.7614C65.6032 42.7614 64.5653 43.053 63.679 43.6364C62.7926 44.2197 62.1032 45.0758 61.6108 46.2045C61.1259 47.3333 60.8835 48.7197 60.8835 50.3636C60.8835 52.0076 61.1259 53.3939 61.6108 54.5227C62.1032 55.6515 62.7926 56.5076 63.679 57.0909C64.5653 57.6742 65.6032 57.9659 66.7926 57.9659C67.982 57.9659 69.0199 57.6742 69.9062 57.0909C70.7926 56.5076 71.4782 55.6515 71.963 54.5227C72.4555 53.3939 72.7017 52.0076 72.7017 50.3636Z" fill="white"/>
<path d="M100.801 38.7273V62H96.5511L86.4261 47.3523H86.2557V62H81.3352V38.7273H85.6534L95.6988 53.3636H95.9034V38.7273H100.801Z" fill="white"/>
<path d="M108.878 62H103.605L111.639 38.7273H117.98L126.003 62H120.73L114.901 44.0455H114.719L108.878 62ZM108.548 52.8523H121.003V56.6932H108.548V52.8523Z" fill="white"/>
<path d="M125.074 42.7841V38.7273H144.187V42.7841H137.062V62H132.199V42.7841H125.074Z" fill="white"/>
<path d="M147.335 62V38.7273H163.017V42.7841H152.256V48.3295H162.21V52.3864H152.256V57.9432H163.062V62H147.335Z" fill="white"/>
<path d="M173.449 42.7841V38.7273H192.562V42.7841H185.437V62H180.574V42.7841H173.449Z" fill="white"/>
<path d="M216.034 50.3636C216.034 52.9015 215.553 55.0606 214.591 56.8409C213.636 58.6212 212.333 59.9811 210.682 60.9205C209.038 61.8523 207.189 62.3182 205.136 62.3182C203.068 62.3182 201.212 61.8485 199.568 60.9091C197.924 59.9697 196.625 58.6098 195.67 56.8295C194.716 55.0492 194.239 52.8939 194.239 50.3636C194.239 47.8258 194.716 45.6667 195.67 43.8864C196.625 42.1061 197.924 40.75 199.568 39.8182C201.212 38.8788 203.068 38.4091 205.136 38.4091C207.189 38.4091 209.038 38.8788 210.682 39.8182C212.333 40.75 213.636 42.1061 214.591 43.8864C215.553 45.6667 216.034 47.8258 216.034 50.3636ZM211.045 50.3636C211.045 48.7197 210.799 47.3333 210.307 46.2045C209.822 45.0758 209.136 44.2197 208.25 43.6364C207.364 43.053 206.326 42.7614 205.136 42.7614C203.947 42.7614 202.909 43.053 202.023 43.6364C201.136 44.2197 200.447 45.0758 199.955 46.2045C199.47 47.3333 199.227 48.7197 199.227 50.3636C199.227 52.0076 199.47 53.3939 199.955 54.5227C200.447 55.6515 201.136 56.5076 202.023 57.0909C202.909 57.6742 203.947 57.9659 205.136 57.9659C206.326 57.9659 207.364 57.6742 208.25 57.0909C209.136 56.5076 209.822 55.6515 210.307 54.5227C210.799 53.3939 211.045 52.0076 211.045 50.3636Z" fill="white"/>
<path d="M241.46 38.7273H246.381V53.8409C246.381 55.5379 245.975 57.0227 245.165 58.2955C244.362 59.5682 243.237 60.5606 241.79 61.2727C240.343 61.9773 238.657 62.3295 236.733 62.3295C234.801 62.3295 233.112 61.9773 231.665 61.2727C230.218 60.5606 229.093 59.5682 228.29 58.2955C227.487 57.0227 227.085 55.5379 227.085 53.8409V38.7273H232.006V53.4205C232.006 54.3068 232.199 55.0947 232.585 55.7841C232.979 56.4735 233.532 57.0151 234.244 57.4091C234.956 57.803 235.786 58 236.733 58C237.687 58 238.517 57.803 239.222 57.4091C239.934 57.0151 240.483 56.4735 240.869 55.7841C241.263 55.0947 241.46 54.3068 241.46 53.4205V38.7273Z" fill="white"/>
<path d="M250.429 62V38.7273H255.349V48.9886H255.656L264.031 38.7273H269.929L261.293 49.1477L270.031 62H264.145L257.77 52.4318L255.349 55.3864V62H250.429Z" fill="white"/>
<path d="M272.491 62V38.7273H281.673C283.431 38.7273 284.931 39.0417 286.173 39.6705C287.423 40.2917 288.374 41.1742 289.026 42.3182C289.685 43.4545 290.014 44.7917 290.014 46.3295C290.014 47.875 289.681 49.2045 289.014 50.3182C288.348 51.4242 287.382 52.2727 286.116 52.8636C284.859 53.4545 283.336 53.75 281.548 53.75H275.401V49.7955H280.753C281.692 49.7955 282.473 49.6667 283.094 49.4091C283.715 49.1515 284.177 48.7651 284.48 48.25C284.791 47.7348 284.946 47.0947 284.946 46.3295C284.946 45.5568 284.791 44.9053 284.48 44.375C284.177 43.8447 283.711 43.4432 283.082 43.1705C282.461 42.8901 281.677 42.75 280.73 42.75H277.412V62H272.491ZM285.06 51.4091L290.844 62H285.412L279.753 51.4091H285.06Z" fill="white"/>
<path d="M297.503 62H292.23L300.264 38.7273H306.605L314.628 62H309.355L303.526 44.0455H303.344L297.503 62ZM297.173 52.8523H309.628V56.6932H297.173V52.8523Z" fill="white"/>
<path d="M322.349 38.7273V62H317.429V38.7273H322.349Z" fill="white"/>
<path d="M345.864 38.7273V62H341.614L331.489 47.3523H331.318V62H326.398V38.7273H330.716L340.761 53.3636H340.966V38.7273H345.864Z" fill="white"/>
<path d="M349.929 62V38.7273H365.611V42.7841H354.849V48.3295H364.804V52.3864H354.849V57.9432H365.656V62H349.929Z" fill="white"/>
</g>
<defs>
<filter id="filter0_d_3_19" x="25.0227" y="30.4091" width="348.634" height="39.9205" filterUnits="userSpaceOnUse" color-interpolation-filters="sRGB">
<feFlood flood-opacity="0" result="BackgroundImageFix"/>
<feColorMatrix in="SourceAlpha" type="matrix" values="0 0 0 0 0 0 0 0 0 0 0 0 0 0 0 0 0 0 127 0" result="hardAlpha"/>
<feOffset/>
<feGaussianBlur stdDeviation="4"/>
<feComposite in2="hardAlpha" operator="out"/>
<feColorMatrix type="matrix" values="0 0 0 0 0 0 0 0 0 0 0 0 0 0 0 0 0 0 0.3 0"/>
<feBlend mode="normal" in2="BackgroundImageFix" result="effect1_dropShadow_3_19"/>
<feBlend mode="normal" in="SourceGraphic" in2="effect1_dropShadow_3_19" result="shape"/>
</filter>
</defs>
</svg>
