<svg width="400" height="100" viewBox="0 0 400 100" fill="none" xmlns="http://www.w3.org/2000/svg">
<rect width="400" height="100" rx="50" fill="#005BBB"/>
<g filter="url(#filter0_d_3_20)">
<path d="M62.6477 45.4205C62.5568 44.5038 62.1667 43.7917 61.4773 43.2841C60.7879 42.7765 59.8523 42.5227 58.6704 42.5227C57.8674 42.5227 57.1894 42.6364 56.6364 42.8636C56.0833 43.0833 55.6591 43.3901 55.3636 43.7841C55.0758 44.178 54.9318 44.625 54.9318 45.125C54.9167 45.5417 55.0038 45.9053 55.1932 46.2159C55.3901 46.5265 55.6591 46.7955 56 47.0227C56.3409 47.2424 56.7348 47.4356 57.1818 47.6023C57.6288 47.7614 58.1061 47.8977 58.6136 48.0114L60.7045 48.5114C61.7197 48.7386 62.6515 49.0417 63.5 49.4205C64.3485 49.7992 65.0833 50.2651 65.7045 50.8182C66.3258 51.3712 66.8068 52.0227 67.1477 52.7727C67.4962 53.5227 67.6742 54.3826 67.6818 55.3523C67.6742 56.7765 67.3106 58.0114 66.5909 59.0568C65.8788 60.0947 64.8485 60.9015 63.5 61.4773C62.1591 62.0455 60.5417 62.3295 58.6477 62.3295C56.7689 62.3295 55.1326 62.0417 53.7386 61.4659C52.3523 60.8902 51.2689 60.0379 50.4886 58.9091C49.7159 57.7727 49.3106 56.3674 49.2727 54.6932H54.0341C54.0871 55.4735 54.3106 56.125 54.7045 56.6477C55.1061 57.1629 55.6401 57.553 56.3068 57.8182C56.9811 58.0758 57.7424 58.2045 58.5909 58.2045C59.4242 58.2045 60.1477 58.0833 60.7614 57.8409C61.3826 57.5985 61.8636 57.2614 62.2045 56.8295C62.5454 56.3977 62.7159 55.9015 62.7159 55.3409C62.7159 54.8182 62.5606 54.3788 62.25 54.0227C61.947 53.6667 61.5 53.3636 60.9091 53.1136C60.3258 52.8636 59.6098 52.6364 58.7614 52.4318L56.2273 51.7955C54.2651 51.3182 52.7159 50.572 51.5795 49.5568C50.4432 48.5417 49.8788 47.1742 49.8864 45.4545C49.8788 44.0455 50.2538 42.8144 51.0114 41.7614C51.7765 40.7083 52.8258 39.8864 54.1591 39.2955C55.4924 38.7045 57.0076 38.4091 58.7045 38.4091C60.4318 38.4091 61.9394 38.7045 63.2273 39.2955C64.5227 39.8864 65.5303 40.7083 66.25 41.7614C66.9697 42.8144 67.3409 44.0341 67.3636 45.4205H62.6477Z" fill="white"/>
<path d="M85.3665 38.7273H90.2869V53.8409C90.2869 55.5379 89.8816 57.0227 89.071 58.2955C88.268 59.5682 87.143 60.5606 85.696 61.2727C84.249 61.9773 82.5634 62.3295 80.6392 62.3295C78.7074 62.3295 77.018 61.9773 75.571 61.2727C74.124 60.5606 72.999 59.5682 72.196 58.2955C71.393 57.0227 70.9915 55.5379 70.9915 53.8409V38.7273H75.9119V53.4205C75.9119 54.3068 76.1051 55.0947 76.4915 55.7841C76.8854 56.4735 77.4384 57.0151 78.1506 57.4091C78.8627 57.803 79.6922 58 80.6392 58C81.5937 58 82.4233 57.803 83.1278 57.4091C83.84 57.0151 84.3892 56.4735 84.7756 55.7841C85.1695 55.0947 85.3665 54.3068 85.3665 53.4205V38.7273Z" fill="white"/>
<path d="M94.3352 62V38.7273H103.517C105.282 38.7273 106.786 39.0644 108.028 39.7386C109.271 40.4053 110.218 41.3333 110.869 42.5227C111.528 43.7045 111.858 45.0682 111.858 46.6136C111.858 48.1591 111.525 49.5227 110.858 50.7045C110.191 51.8864 109.225 52.8068 107.96 53.4659C106.703 54.125 105.18 54.4545 103.392 54.4545H97.5398V50.5114H102.597C103.544 50.5114 104.324 50.3485 104.937 50.0227C105.559 49.6894 106.021 49.2311 106.324 48.6477C106.634 48.0568 106.79 47.3788 106.79 46.6136C106.79 45.8409 106.634 45.1667 106.324 44.5909C106.021 44.0076 105.559 43.5568 104.937 43.2386C104.316 42.9129 103.528 42.75 102.574 42.75H99.2557V62H94.3352Z" fill="white"/>
<path d="M115.054 62V38.7273H124.236C126.001 38.7273 127.505 39.0644 128.747 39.7386C129.99 40.4053 130.937 41.3333 131.588 42.5227C132.247 43.7045 132.577 45.0682 132.577 46.6136C132.577 48.1591 132.243 49.5227 131.577 50.7045C130.91 51.8864 129.944 52.8068 128.679 53.4659C127.421 54.125 125.899 54.4545 124.111 54.4545H118.259V50.5114H123.315C124.262 50.5114 125.043 50.3485 125.656 50.0227C126.277 49.6894 126.74 49.2311 127.043 48.6477C127.353 48.0568 127.509 47.3788 127.509 46.6136C127.509 45.8409 127.353 45.1667 127.043 44.5909C126.74 44.0076 126.277 43.5568 125.656 43.2386C125.035 42.9129 124.247 42.75 123.293 42.75H119.974V62H115.054Z" fill="white"/>
<path d="M157.159 50.3636C157.159 52.9015 156.678 55.0606 155.716 56.8409C154.761 58.6212 153.458 59.9811 151.807 60.9205C150.163 61.8523 148.314 62.3182 146.261 62.3182C144.193 62.3182 142.337 61.8485 140.693 60.9091C139.049 59.9697 137.75 58.6098 136.795 56.8295C135.841 55.0492 135.364 52.8939 135.364 50.3636C135.364 47.8258 135.841 45.6667 136.795 43.8864C137.75 42.1061 139.049 40.75 140.693 39.8182C142.337 38.8788 144.193 38.4091 146.261 38.4091C148.314 38.4091 150.163 38.8788 151.807 39.8182C153.458 40.75 154.761 42.1061 155.716 43.8864C156.678 45.6667 157.159 47.8258 157.159 50.3636ZM152.17 50.3636C152.17 48.7197 151.924 47.3333 151.432 46.2045C150.947 45.0758 150.261 44.2197 149.375 43.6364C148.489 43.053 147.451 42.7614 146.261 42.7614C145.072 42.7614 144.034 43.053 143.148 43.6364C142.261 44.2197 141.572 45.0758 141.08 46.2045C140.595 47.3333 140.352 48.7197 140.352 50.3636C140.352 52.0076 140.595 53.3939 141.08 54.5227C141.572 55.6515 142.261 56.5076 143.148 57.0909C144.034 57.6742 145.072 57.9659 146.261 57.9659C147.451 57.9659 148.489 57.6742 149.375 57.0909C150.261 56.5076 150.947 55.6515 151.432 54.5227C151.924 53.3939 152.17 52.0076 152.17 50.3636Z" fill="white"/>
<path d="M160.804 62V38.7273H169.986C171.743 38.7273 173.243 39.0417 174.486 39.6705C175.736 40.2917 176.687 41.1742 177.338 42.3182C177.997 43.4545 178.327 44.7917 178.327 46.3295C178.327 47.875 177.993 49.2045 177.327 50.3182C176.66 51.4242 175.694 52.2727 174.429 52.8636C173.171 53.4545 171.649 53.75 169.861 53.75H163.713V49.7955H169.065C170.005 49.7955 170.785 49.6667 171.406 49.4091C172.027 49.1515 172.49 48.7651 172.793 48.25C173.103 47.7348 173.259 47.0947 173.259 46.3295C173.259 45.5568 173.103 44.9053 172.793 44.375C172.49 43.8447 172.024 43.4432 171.395 43.1705C170.774 42.8901 169.99 42.75 169.043 42.75H165.724V62H160.804ZM173.372 51.4091L179.156 62H173.724L168.065 51.4091H173.372Z" fill="white"/>
<path d="M180.918 42.7841V38.7273H200.031V42.7841H192.906V62H188.043V42.7841H180.918Z" fill="white"/>
<path d="M224.96 38.7273H229.881V53.8409C229.881 55.5379 229.475 57.0227 228.665 58.2955C227.862 59.5682 226.737 60.5606 225.29 61.2727C223.843 61.9773 222.157 62.3295 220.233 62.3295C218.301 62.3295 216.612 61.9773 215.165 61.2727C213.718 60.5606 212.593 59.5682 211.79 58.2955C210.987 57.0227 210.585 55.5379 210.585 53.8409V38.7273H215.506V53.4205C215.506 54.3068 215.699 55.0947 216.085 55.7841C216.479 56.4735 217.032 57.0151 217.744 57.4091C218.456 57.803 219.286 58 220.233 58C221.187 58 222.017 57.803 222.722 57.4091C223.434 57.0151 223.983 56.4735 224.369 55.7841C224.763 55.0947 224.96 54.3068 224.96 53.4205V38.7273Z" fill="white"/>
<path d="M233.929 62V38.7273H238.849V48.9886H239.156L247.531 38.7273H253.429L244.793 49.1477L253.531 62H247.645L241.27 52.4318L238.849 55.3864V62H233.929Z" fill="white"/>
<path d="M255.991 62V38.7273H265.173C266.931 38.7273 268.431 39.0417 269.673 39.6705C270.923 40.2917 271.874 41.1742 272.526 42.3182C273.185 43.4545 273.514 44.7917 273.514 46.3295C273.514 47.875 273.181 49.2045 272.514 50.3182C271.848 51.4242 270.882 52.2727 269.616 52.8636C268.359 53.4545 266.836 53.75 265.048 53.75H258.901V49.7955H264.253C265.192 49.7955 265.973 49.6667 266.594 49.4091C267.215 49.1515 267.677 48.7651 267.98 48.25C268.291 47.7348 268.446 47.0947 268.446 46.3295C268.446 45.5568 268.291 44.9053 267.98 44.375C267.677 43.8447 267.211 43.4432 266.582 43.1705C265.961 42.8901 265.177 42.75 264.23 42.75H260.912V62H255.991ZM268.56 51.4091L274.344 62H268.912L263.253 51.4091H268.56Z" fill="white"/>
<path d="M281.003 62H275.73L283.764 38.7273H290.105L298.128 62H292.855L287.026 44.0455H286.844L281.003 62ZM280.673 52.8523H293.128V56.6932H280.673V52.8523Z" fill="white"/>
<path d="M305.849 38.7273V62H300.929V38.7273H305.849Z" fill="white"/>
<path d="M329.364 38.7273V62H325.114L314.989 47.3523H314.818V62H309.898V38.7273H314.216L324.261 53.3636H324.466V38.7273H329.364Z" fill="white"/>
<path d="M333.429 62V38.7273H349.111V42.7841H338.349V48.3295H348.304V52.3864H338.349V57.9432H349.156V62H333.429Z" fill="white"/>
</g>
<defs>
<filter id="filter0_d_3_20" x="41.2727" y="30.4091" width="315.884" height="39.9205" filterUnits="userSpaceOnUse" color-interpolation-filters="sRGB">
<feFlood flood-opacity="0" result="BackgroundImageFix"/>
<feColorMatrix in="SourceAlpha" type="matrix" values="0 0 0 0 0 0 0 0 0 0 0 0 0 0 0 0 0 0 127 0" result="hardAlpha"/>
<feOffset/>
<feGaussianBlur stdDeviation="4"/>
<feComposite in2="hardAlpha" operator="out"/>
<feColorMatrix type="matrix" values="0 0 0 0 0 0 0 0 0 0 0 0 0 0 0 0 0 0 0.3 0"/>
<feBlend mode="normal" in2="BackgroundImageFix" result="effect1_dropShadow_3_20"/>
<feBlend mode="normal" in="SourceGraphic" in2="effect1_dropShadow_3_20" result="shape"/>
</filter>
</defs>
</svg>
